<svg width="210" height="175" viewBox="0 0 210 175" fill="none" xmlns="http://www.w3.org/2000/svg">
<g clip-path="url(#clip0)">
<path fill-rule="evenodd" clip-rule="evenodd" d="M211.95 153.078C211.066 142.727 205.803 133.67 200.146 125.197C189.133 108.702 183.438 98.7364 182.658 77.8114C182.199 65.505 181.835 52.4894 174.398 42.0761C168.983 34.4931 158.525 26.8871 148.63 29.4386C133.11 34.7906 125.872 50.9177 124.1 66.343C121.905 85.4616 128.249 98.8592 143.638 109.287C152.31 115.16 157.541 121.612 160.82 131.635C163.443 139.65 163.972 149.11 167.792 156.677C173.503 167.989 182.284 174.322 194.555 175.206C187.676 152.303 178.954 128.813 166.821 108.204C165.71 106.155 158.405 97.6733 160.78 95.0729C163.395 92.21 169.759 106.348 169.711 106.261C173.191 112.472 176.26 118.942 179.241 125.449C179.229 125.452 179.216 125.453 179.204 125.456C182.277 132.137 185.299 138.895 188.225 145.71C189.385 148.577 190.493 151.466 191.518 154.405C193.022 158.716 194.408 170.352 197.687 173.495C198.389 174.168 199.076 174.605 199.749 174.867C201.442 179.618 203.058 184.388 204.541 189.183C208.414 201.707 211.275 214.673 211.076 227.856C211.018 231.704 207.62 245.433 209.587 248.63C213.182 254.478 213.795 244.791 214.113 241.895C216.733 217.911 212.48 196.121 204.358 173.799C209.149 169.67 212.308 157.272 211.95 153.078Z" fill="#F2F2F2"/>
<path fill-rule="evenodd" clip-rule="evenodd" d="M51.4899 131.393C57.5542 126.677 69.455 128.149 76.5289 130.028C85.2821 132.353 93.9244 136.409 101.802 140.775C114.779 147.967 126.623 158.617 137.257 168.751C138.538 169.973 154.399 184.674 152.393 186.253C150.406 187.817 135.306 171.136 131.804 168.073C124.331 161.535 117.742 154.274 109.064 149.174C100.079 143.893 90.1253 140.465 79.9416 138.43C78.6346 138.169 74.5693 136.37 74.0741 138.28C73.5896 140.149 80.8366 140.636 82.0761 140.907C87.1944 142.026 92.2534 143.587 97.1231 145.532C106.247 149.177 114.451 154.392 121.488 161.233C118.124 166.023 112.191 167.315 106.774 164.808C102.092 162.641 97.883 158.831 93.2353 157.012C90.0343 155.76 86.6427 155.398 83.23 155.66C74.228 156.353 68.2775 160.382 59.6813 154.917C52.9424 150.633 42.7782 138.178 51.4899 131.393Z" fill="#F2F2F2"/>
<path fill-rule="evenodd" clip-rule="evenodd" d="M68.3339 78.2862L70.6359 78.7673C71.0853 75.8122 71.4848 72.8515 71.595 69.8596C72.0076 58.6447 69.5456 41.5316 57.2226 37.1216C56.7681 36.9583 55.0483 36.5873 52.9369 36.2723C52.0624 35.5191 51.024 34.9572 49.873 34.6373C39.2331 31.591 25.3647 37.6921 18.2774 45.5765C12.5637 51.9334 11.2858 61.582 12.2742 69.811C12.9364 75.3203 15.1955 83.4501 21.5053 84.8436C29.3996 86.587 31.8034 76.9916 33.1387 71.3675C34.9137 63.8904 37.2434 57.5406 44.3042 53.6669C45.9497 52.7646 47.6951 52.033 49.3512 51.1502C51.9444 49.7686 54.7788 48.3916 55.7005 45.402C56.9724 41.2775 54.7303 40.0188 50.9022 40.0344C50.2497 40.0368 43.3728 41.515 44.7661 39.5017C45.1915 38.8867 46.3422 38.5693 47.7373 38.4429C51.207 38.7872 55.3424 39.2095 56.4534 39.7058C68.4398 45.0551 69.7321 63.2827 68.7456 74.4857C68.6338 75.7543 68.4917 77.0209 68.3339 78.2862L68.3339 78.2862Z" fill="#F2F2F2"/>
<g filter="url(#filter0_d)">
<path d="M164.97 101.732C163.751 103.883 160.985 103.438 159.531 101.548C158.076 99.6575 157.588 96.8984 157.16 94.2914C156.319 89.1426 155.714 83.9286 154.873 78.7798C154.234 74.8475 152.241 70.5677 152.199 66.6246C155.554 68.0802 158.707 71.6323 160.985 75.0757C163.221 78.4539 163.675 81.7126 164.491 85.9273C165.155 89.3707 166.778 98.5604 164.97 101.732Z" fill="#0096D6"/>
<path d="M158.286 172.435C157.513 182.95 156.361 191.825 156.806 202.416C157.403 216.613 156.571 230.908 154.335 244.823C152.922 253.643 150.459 262.029 149.433 270.915C148.76 276.704 145.616 286.817 146.398 292.488C146.398 292.477 138.579 235.655 138.579 235.655L142.833 163.832L158.286 172.435Z" fill="#0082BA"/>
<path d="M119.721 171.317C118.124 172.675 121.849 194.562 122.193 197.55C124.362 216.059 127.028 234.602 127.364 253.372C127.877 281.538 126.153 312.279 126.153 312.279C126.153 312.279 136.965 319.307 147.037 311.204C147.037 311.204 144.195 256.946 144.28 251.558C144.364 246.17 143.767 202.34 143.767 202.34V171.317H119.721Z" fill="#0096D6"/>
<path opacity="0.45" d="M120.756 178.29C120.756 178.29 140.698 183.635 144.885 182.19C149.072 180.745 157.74 179.3 157.74 179.3L158.295 172.435L120.167 170.914L120.756 178.29Z" fill="#0096D6"/>
<path d="M125.287 71.0235C124.547 71.6536 123.816 72.2945 123.101 72.9679C119.318 76.5091 121.714 82.603 121.462 87.8496C120.957 98.0277 120.016 108.771 120.957 118.949C122.025 130.441 123.244 138.36 120.713 147.561C118.183 156.761 116.224 175.575 117.208 175.282C122.53 173.75 130.483 176.879 135.923 177.226C145.272 177.824 154.301 176.173 163.709 176.325C163.322 159.781 161.548 143.129 162.179 126.444C162.498 118.058 163.213 81.8752 160.876 77.9647C158.539 74.0542 151.056 63.6588 151.056 63.6588C150.282 62.5834 146.978 62.4096 145.944 62.1815C144.111 61.7796 141.816 60.8019 139.967 60.9431C138.134 61.0735 136.334 62.931 134.737 64.039C131.542 66.2658 128.322 68.46 125.287 71.0235Z" fill="#0096D6"/>
<path opacity="0.45" d="M128.583 106.868L132.08 83.8726L137.579 114.657L124.001 130.027L128.583 106.868Z" fill="#0096D6"/>
<path opacity="0.45" d="M122.176 134.069C122.176 134.069 143.33 125.955 146.407 124.564C149.484 123.185 162.095 129.311 162.095 129.311V116.808L146.667 109.835L121.638 126.052L122.176 134.069Z" fill="#0096D6"/>
<path d="M118.418 103.557C118.2 103.991 118.132 104.762 118.023 106.164C117.468 113.452 117.678 119.883 118.948 126.955C119.166 128.149 119.427 129.442 120.184 130.17C121.251 131.191 122.748 130.637 123.992 130.04C127.296 128.454 130.668 127.041 133.98 125.369C138.26 123.207 142.009 120.524 146.415 118.786C146.003 118.949 144.784 113.007 144.086 112.562C142.556 111.584 139.117 114.235 137.57 114.669C136.704 114.919 127.507 116.548 127.507 116.624C126.288 112.442 128.045 106.957 129.121 102.97C126.372 102.97 123.614 102.862 120.865 102.97C119.36 103.024 118.729 102.927 118.418 103.557Z" fill="#F2C8B4"/>
<path d="M117.872 108.532L127.692 110.433L129.129 102.959L118.418 103.557L117.872 108.532Z" fill="#D6B9AB"/>
<path d="M123.841 71.816C121.067 74.586 118.755 78.3009 117.224 82.0593C114.568 88.6094 115.719 97.9186 116.081 105.11C116.081 105.11 129.995 106.522 130.004 106.522C130.332 106.554 131.198 92.1072 131.24 91.173C131.626 82.9935 131.357 75.6505 129.642 67.8838C127.582 68.6442 125.623 70.0454 123.841 71.816Z" fill="#0096D6"/>
<path d="M144.876 121.892L169.3 128.779L192.605 92.9654L167.291 85.2095L144.876 121.892Z" fill="#00234B"/>
<path d="M152.233 109.726C154.057 109.845 155.596 110.204 157.05 111.801C157.715 112.528 159.606 115.885 158.816 117.015C158.227 117.851 153.402 116.667 152.443 116.591C153.57 117.004 154.696 117.417 155.823 117.829C156.336 118.014 156.991 118.514 156.807 119.165C156.706 119.524 156.361 119.698 156.058 119.654C155.764 119.611 155.487 119.415 155.218 119.263C153.469 118.286 151.283 119.046 149.416 118.894C146.877 118.688 144.229 118.622 141.724 118.112C141.858 117.145 142.001 116.048 142.228 115.081C142.884 112.268 144.548 110.562 146.659 109.867C149.122 109.063 151.384 106.684 153.923 106.402C153.359 107.499 152.796 108.607 152.233 109.726Z" fill="#F2C8B4"/>
<path d="M173.823 126.813C173.479 126.921 171.923 125.346 171.587 125.053C170.998 124.543 168.981 122.957 169.056 121.914C169.098 121.36 172.15 122.696 172.36 122.783C171.848 122.577 169.989 120.035 170.158 119.296C170.452 118.003 173.067 119.926 173.622 120.208C172.999 119.904 172.083 119.187 171.763 118.394C170.662 115.657 174.294 117.232 175.126 117.46C174.277 116.83 172.562 115.386 173.697 114.104C174.252 113.485 178.599 113.452 178.952 114.125C178.977 114.18 179.17 114.723 179.187 114.777C178.733 119.046 177.573 125.52 173.823 126.813Z" fill="#F2C8B4"/>
<path d="M149.627 55.9895C149.627 55.9895 149.87 63.2456 150.862 67.6232L146.945 76.1611C146.945 76.1611 136.435 66.5369 135.645 63.9517C135.645 63.9517 139.596 61.1491 139.042 55.5333C138.478 49.9282 140.992 61.3447 149.627 55.9895Z" fill="#F2C8B4"/>
<path d="M149.627 58.6937L149.517 50.3839L138.907 51.1117L138.646 58.748L138.419 65.5588C139.899 66.3627 141.455 67.0579 142.699 68.3614C143.968 69.6975 145.221 70.9901 146.339 72.5434C146.297 72.4783 148.138 69.1218 148.315 68.7633C148.811 67.7531 149.156 66.6016 149.509 65.5045C149.803 64.5595 149.719 63.9838 149.694 62.9844C149.643 61.5506 149.652 60.1167 149.627 58.6937Z" fill="#F2C8B4"/>
<path d="M138.647 60.6604C141.303 63.0284 144.742 64.9728 146.777 63.691C147.895 62.9958 148.828 61.8878 149.627 60.606L149.517 52.2963L138.907 53.024L138.647 60.6604Z" fill="#D6B9AB"/>
<path d="M138.877 57.23C140.765 57.2143 145.371 57.606 149.4 57.23C152.193 56.969 155.037 55.9166 156.664 53.7729C167.069 40.0642 152.6 20.1505 137.703 20.5712C126.633 20.8839 123.856 57.3539 138.877 57.23Z" fill="#F2DCB4"/>
<path d="M156.101 39.3933V34.3535C156.101 29.0007 150.005 22.2387 145.18 22.2387C140.356 22.2387 134.26 29.0007 134.26 34.3535V39.3933C132.92 39.3933 131.833 40.4783 131.833 41.8163V44.3361C131.833 45.6743 132.92 46.7591 134.26 46.7591C134.26 52.1116 140.356 59.0678 145.18 59.0678C150.005 59.0678 156.101 52.1119 156.101 46.7591C157.441 46.7591 158.527 45.6741 158.527 44.3361V41.8163C158.527 40.4783 157.441 39.3933 156.101 39.3933Z" fill="#F6CCB8"/>
<path opacity="0.8" d="M145.822 50.1028V59.0678C150.415 59.0678 156.217 52.1119 156.217 46.7591C157.493 46.7591 158.527 45.6741 158.527 44.3361V41.8163C158.527 40.4781 157.493 39.3933 156.217 39.3933V34.3535C156.217 29.0007 150.415 22.2387 145.822 22.2387V41.8647C144.137 45.6238 143.512 49.6182 143.512 49.6182L145.822 50.1028Z" fill="#F6CCB8"/>
<path d="M140.036 31.1682C138.214 34.9314 135.265 40.1898 132.978 40.2599C129.852 33.846 132.948 19.4669 144.465 18.915C161.434 18.1018 160.861 37.8145 159.688 42.3272C145.247 38.5034 141.186 32.8085 140.036 31.1682Z" fill="#F2DCB4"/>
<path d="M156.397 46.14C156.19 47.8777 155.88 49.0152 155.669 49.6407C154.346 47.7542 153.702 45.8524 153.498 45.1704L155.896 40.6451C155.96 40.5395 155.922 40.4043 155.812 40.3433C155.703 40.2828 155.562 40.319 155.499 40.4251L153.126 44.9066H145.18H137.234L134.111 39.0901C134.048 38.9843 133.908 38.9478 133.798 39.0083C133.688 39.0694 133.651 39.2043 133.714 39.3101L136.863 45.1701C136.659 45.8524 136.014 47.7542 134.691 49.6405C134.48 49.0152 134.17 47.8775 133.963 46.1397C133.879 46.1486 133.797 46.1643 133.711 46.1643C133.639 46.1643 133.572 46.1501 133.502 46.144C133.849 49.1007 134.481 50.3736 134.509 50.4268L134.527 50.4182C136.212 54.5023 140.826 57.3936 145.18 57.3936C149.535 57.3936 154.149 54.5023 155.834 50.4182L155.852 50.4268C155.879 50.3736 156.512 49.1007 156.859 46.144C156.789 46.1501 156.722 46.1643 156.65 46.1643C156.564 46.1645 156.481 46.1488 156.397 46.14Z" fill="#EBEBEB"/>
<path d="M82.9513 158.738L85.4063 255.305C85.4063 255.305 80.8915 317.373 80.8663 317.732C80.6729 320.415 97.1851 319.796 98.7573 319.676C101.7 300.645 101.784 280.528 102.969 261.171L106.307 218.557L100.565 167.276L82.9513 158.738Z" fill="#00234B"/>
<path d="M60.697 152.655L54.1055 237.111L66.002 319.155L80.3872 315.929L81.6315 298.191L77.3184 244.573L84.7422 200.309L81.6062 153.068L60.697 152.655Z" fill="#00234B"/>
<path d="M54.5682 242.042C56.4767 243.009 69.1467 246.833 72.0893 242.042C73.0393 240.5 73.611 168.297 73.611 168.297L83.8261 156.001L72.0893 156.164H62.9L54.5598 218.047V242.042H54.5682Z" fill="#00234B"/>
<path d="M92.45 66.4614L90.271 65.5249V59.0674H76.2859V65.5249L74.0978 66.405L74.6805 84.7184H76.2859V87.5262H90.271V84.7184H91.8673L92.45 66.4614Z" fill="#F6CCB8"/>
<path d="M72.8627 71.4797L78.1678 88.5664C78.1678 88.5664 94.0411 72.566 94.0495 72.566C93.1499 73.4784 94.1251 83.7435 94.1335 85.1774C94.2008 94.6386 94.2597 104.1 94.3269 113.561C94.3858 122.751 94.1924 132.016 94.5119 141.195C94.6548 145.421 96.0505 149.95 93.2508 152.992C89.7281 156.805 81.5644 156.533 77.2682 156.446C73.384 156.37 62.1096 156.109 60.9494 150.993C60.529 149.147 61.8742 144.823 62.1517 142.955C63.5557 133.591 64.9598 124.228 66.3638 114.875C68.5329 100.396 70.702 85.9377 72.8627 71.4797Z" fill="#0096D6"/>
<path d="M59.6966 74.3358C59.6966 74.3358 48.0691 132.146 47.901 135.633C47.7244 139.12 59.6966 166.7 59.6966 166.7L66.0106 78.5395L59.6966 74.3358Z" fill="#D7E3F2"/>
<path d="M75.7211 66.9064L59.6882 74.3363C59.6882 74.3363 54.0215 166.19 55.0809 170.763C56.1402 175.336 50.0953 234.634 50.0953 234.634C50.0953 234.634 67.7088 241.456 71.0634 235.992L68.9027 111.062L75.7211 66.9064Z" fill="#F8F9FB"/>
<path d="M106.812 239.381C104.222 240.511 101.507 241.087 98.7744 241.282C96.3951 241.445 94.0158 241.315 91.6701 241.011C90.3502 240.848 78.689 238.871 78.689 237.741C78.689 237.687 78.5629 108.434 78.5629 108.434C78.5629 108.434 87.5253 81.9619 89.5599 76.7479C91.5861 71.523 90.7789 62.5289 90.7789 62.5289L100.565 75.629L103.945 98.7987L105.164 122.957C105.164 122.957 107.594 157.912 108.157 166.103C108.157 166.201 108.166 166.298 108.174 166.385C109.334 183.189 110.452 200.005 111.587 216.798C111.882 221.252 112.252 225.705 112.487 230.159C112.798 236.198 111.503 237.328 106.812 239.381Z" fill="#F8F9FB"/>
<path d="M106.812 239.381C104.222 240.51 101.507 241.086 98.7743 241.282L98.4044 240.934L109.578 223.033L106.299 159.009L108.149 166.081C108.149 166.178 108.157 166.276 108.165 166.363C109.326 183.167 110.444 199.982 111.579 216.776C111.873 221.229 112.243 225.683 112.478 230.137C112.798 236.198 111.503 237.328 106.812 239.381Z" fill="#F8F9FB"/>
<path d="M95.5459 100.102C96.2101 101.307 104.752 114.777 104.752 114.777L106.257 138.74L100.565 114.527L95.5459 100.102Z" fill="#F8F9FB"/>
<path d="M100.565 152.242L95.3946 158.738L104.601 161.932L107.484 156.468L100.565 152.242Z" fill="#FFB980"/>
<path d="M98.6986 152.655L106.299 159.02C106.299 159.02 123.568 138.295 124.745 131.321C125.913 124.347 110.578 78.6815 110.578 78.6815L100.557 75.64L98.295 104.686L104.811 116.081L108.981 135.09L98.6986 152.655Z" fill="white"/>
<path d="M97.4485 41.5543L97.8738 36.0057C97.8738 28.75 90.9621 22.871 83.7366 22.871C76.5054 22.871 69.5991 28.75 69.5991 36.0057L70.0241 41.5487C69.6198 41.6467 69.2547 41.8327 68.95 42.0949C68.3844 42.5781 68.0282 43.2926 68.0282 44.0967V46.8287C68.0282 48.2731 69.1875 49.445 70.6301 49.4539C70.6301 56.3054 78.8348 62.8002 83.7369 62.8002C88.6386 62.8002 96.8434 56.3062 96.8434 49.4548C98.2806 49.4444 99.443 48.2742 99.443 46.8298V44.0978C99.4424 42.8638 98.5915 41.8364 97.4485 41.5543Z" fill="#F6CCB8"/>
<path opacity="0.8" d="M97.4482 41.5544L97.8736 36.0058C97.8736 28.7501 90.9619 22.8711 83.7364 22.8711C83.7355 22.8711 83.7347 22.8711 83.7341 22.8711V41.5224C81.8242 45.5979 80.5922 51.5048 80.5922 51.5048H83.7341V62.8006C83.7341 62.8006 83.735 62.8006 83.7355 62.8006C83.7364 62.8006 83.7372 62.8006 83.738 62.8006C88.6401 62.7992 96.8429 56.3058 96.8429 49.4552C98.2801 49.4448 99.4425 48.2746 99.4425 46.8302V44.0982C99.4422 42.864 98.5912 41.8365 97.4482 41.5544Z" fill="#F6CCB8"/>
<path d="M99.95 23.2546C99.8942 22.804 99.4863 22.4837 99.0366 22.536C95.8714 22.9046 95.6841 22.2196 90.1668 18.9602C85.1567 16.0006 80.0303 17.1806 76.614 19.7284C63.0449 22.8709 68.0536 39.2579 69.6752 43.6757C69.7648 43.9204 70.1232 43.8614 70.1352 43.601C70.2727 40.6265 71.0063 32.8299 74.9062 30.0816C83.0452 35.6502 91.3619 35.953 96.0968 32.6414C97.398 35.6875 97.4694 40.5523 97.403 43.0975C97.396 43.3748 97.7869 43.44 97.8676 43.1745C98.6818 40.4989 100.001 34.9042 98.7546 29.7922C99.8024 28.0124 100.265 25.8094 99.95 23.2546Z" fill="#4F3C30"/>
<path d="M74.2425 48.2728C74.0101 49.0836 73.2746 51.3436 71.7642 53.5851C71.524 52.842 71.17 51.49 70.9332 49.4247C70.8374 49.4354 70.7439 49.4539 70.6453 49.4539C70.5635 49.4539 70.4868 49.4368 70.4067 49.4297C70.8029 52.9434 71.5245 54.4561 71.5559 54.5193L71.5772 54.5092C73.5 59.3624 78.7658 62.7985 83.7356 62.7985C88.7057 62.7985 93.9712 59.3627 95.8943 54.5092L95.915 54.5193C95.9461 54.4558 96.668 52.9434 97.0642 49.4297C96.9844 49.4368 96.9071 49.4539 96.8256 49.4539C96.7268 49.4539 96.6332 49.4354 96.5375 49.4247C96.3009 51.49 95.9472 52.8417 95.7067 53.5851C94.1963 51.3433 93.4608 49.0833 93.2284 48.2728" fill="#EBEBEB"/>
<path d="M98.2544 39.4329H95.4482C94.5614 38.9665 93.3201 38.669 91.5827 38.669C88.6933 38.669 86.7324 39.2247 85.7261 40.3095C85.2501 40.0468 84.5397 39.7482 83.7361 39.7482C82.9398 39.7482 82.2353 40.0412 81.759 40.3022C80.7504 39.2222 78.792 38.669 75.9094 38.669C74.1719 38.669 72.9307 38.9665 72.0436 39.4329H69.2172V41.4614L70.1449 41.7879C70.05 42.1683 70.0113 42.5538 70.0113 42.9258C70.0113 45.4465 70.6229 48.7972 75.9091 48.7972C80.6306 48.7972 81.8693 45.8823 82.4581 43.0317C82.5475 42.5993 82.5573 42.1874 82.4976 41.8008C82.7278 41.6533 83.1078 41.5238 83.7358 41.5238C84.3801 41.5238 84.7643 41.6598 84.9925 41.8121C84.9348 42.1956 84.9449 42.6035 85.0334 43.0317C85.6222 45.8826 86.8607 48.7972 91.5824 48.7972C96.8687 48.7972 97.4802 45.4465 97.4802 42.9258C97.4802 42.5518 97.4407 42.1641 97.3447 41.7814L98.2541 41.4614V39.4329H98.2544ZM81.4434 42.8201C80.8313 45.7831 79.6564 47.7565 75.9096 47.7565C71.6379 47.7565 71.049 45.4347 71.049 42.9258C71.049 42.1301 71.049 39.7097 75.9096 39.7097C79.2636 39.7097 80.5852 40.4713 81.1035 41.1102C81.47 41.562 81.5845 42.1371 81.4434 42.8201ZM91.583 47.7565C87.8362 47.7565 86.6613 45.7831 86.0489 42.8201C85.9081 42.1374 86.0223 41.562 86.3892 41.1105C86.9074 40.4716 88.2291 39.71 91.583 39.71C96.4436 39.71 96.4436 42.1304 96.4436 42.9261C96.4436 45.4347 95.8545 47.7565 91.583 47.7565Z" fill="#42404D"/>
<path d="M91.9223 168.514L99.4302 175.596L104.878 175.998L98.3036 179.963L91.9223 168.514Z" fill="#F8F9FB"/>
<path d="M78.5546 108.434L95.4535 84.8842L91.998 82.1251L100.111 81.4516L100.565 75.6293L90.9723 64.4844L90.9639 72.5553L78.5546 108.434Z" fill="white"/>
<path d="M70.2479 103.23L67.0951 82.6566L68.6673 80.5492L63.8498 79.2457C63.8498 79.2457 74.7206 66.6235 77.1336 65.1028L72.8542 87.0993L70.2479 103.23Z" fill="white"/>
<path d="M67.4315 90.402C67.339 93.1502 64.9681 96.5937 63.0596 93.487C62.0087 91.7707 63.1689 87.4583 64.8672 86.9586C66.2628 86.5567 67.4987 88.5662 67.4315 90.402Z" fill="#00234B"/>
<path d="M76.6965 64.9296C72.8459 66.5373 69.4577 69.8395 67.213 74.2062C64.9598 78.5946 63.3371 85.286 64.6655 90.4891C64.7496 90.815 65.1111 90.7498 65.1279 90.413C65.2372 87.7843 65.0859 85.2642 65.4978 82.6464C65.9182 79.9742 66.7253 77.4106 67.8603 75.1186C70.0126 70.7954 73.2159 67.7756 76.932 66.0267C77.4532 65.7769 77.243 64.7124 76.6965 64.9296Z" fill="#00234B"/>
<path d="M95.5207 82.146C96.7229 78.7894 96.622 74.5639 95.8654 71.0662C95.1592 67.8075 93.5029 63.343 90.9723 61.8874C90.8041 61.7896 90.5687 62.0069 90.6948 62.2459C91.3758 63.5602 92.3258 64.5922 93.0152 65.9174C93.8392 67.4925 94.4613 69.2304 94.8649 71.0662C95.7056 74.8572 95.3525 78.1594 94.6967 81.9178C94.6967 81.9287 94.6967 81.9396 94.6967 81.9504C92.0736 81.7984 90.3333 85.8392 89.4925 88.5222C88.2398 92.4653 87.8531 96.9516 88.635 101.112C88.45 101.416 88.3323 101.796 88.3155 102.176C88.2398 103.219 88.9713 104.382 89.9297 104.045C90.5267 103.838 90.9975 103.111 90.9723 102.296C90.947 101.536 90.5014 100.829 89.9381 100.601C89.6607 100.493 89.4085 100.504 89.1899 100.601C88.9124 97.549 88.9545 94.5075 89.5934 91.4768C90.2072 88.5766 92.4772 81.1466 95.714 83.6015C98.1858 85.4807 97.1685 91.5963 96.6725 94.5401C96.1764 97.4838 95.2853 100.123 94.2848 102.785C94.1418 102.622 93.9821 102.491 93.8055 102.426C93.2086 102.209 92.6201 102.644 92.3931 103.371C92.1829 104.045 92.3511 104.849 92.8555 105.229C93.2675 105.544 93.8224 105.479 94.1671 105.055C94.2596 105.022 94.352 104.957 94.4193 104.827C96.4875 101.003 97.5889 96.0608 97.9756 91.466C98.2363 88.3919 98.4044 83.2431 95.5207 82.146Z" fill="#00234B"/>
<path d="M65.6825 90.5753C65.6321 92.1612 64.2617 94.1491 63.1603 92.3567C62.555 91.3683 63.2192 88.8699 64.2028 88.5875C65.0015 88.3594 65.7161 89.5108 65.6825 90.5753Z" fill="#0096D6"/>
</g>
<path d="M191.497 140.034L193.767 145.4L197.928 148.333L193.767 151.266L191.497 156.642L189.227 151.266L185.073 148.333L189.227 145.4L191.497 140.034Z" fill="white"/>
<path d="M27.4646 61.774L28.6081 64.4571L30.6847 65.9235L28.6081 67.39L27.4646 70.073L26.3296 67.39L24.253 65.9235L26.3296 64.4571L27.4646 61.774Z" fill="white"/>
<path d="M3.3647 151.851L4.4997 154.545L6.57632 156.012L4.4997 157.478L3.3647 160.161L2.2297 157.478L0.153076 156.012L2.2297 154.545L3.3647 151.851Z" fill="white"/>
</g>
<defs>
<filter id="filter0_d" x="43.899" y="17.2162" width="152.706" height="322.02" filterUnits="userSpaceOnUse" color-interpolation-filters="sRGB">
<feFlood flood-opacity="0" result="BackgroundImageFix"/>
<feColorMatrix in="SourceAlpha" type="matrix" values="0 0 0 0 0 0 0 0 0 0 0 0 0 0 0 0 0 0 127 0"/>
<feOffset dy="4"/>
<feGaussianBlur stdDeviation="2"/>
<feColorMatrix type="matrix" values="0 0 0 0 0 0 0 0 0 0 0 0 0 0 0 0 0 0 0.1 0"/>
<feBlend mode="normal" in2="BackgroundImageFix" result="effect1_dropShadow"/>
<feBlend mode="normal" in="SourceGraphic" in2="effect1_dropShadow" result="shape"/>
</filter>
<clipPath id="clip0">
<rect width="210" height="174" fill="white" transform="translate(0 0.221558)"/>
</clipPath>
</defs>
</svg>
